# xmcd CD Database Entry
#
# Track frame offsets:
# 150
# 19912
# 59735
# 72395
# 78865
# 129590
# 156022
# 176872
# 231755
# 247610
# 293317
#
# Disc length: 4244 seconds
#
# Revision: 2
# Processed by: cddbd v1.4b41PL1 Copyright (c) Steve Scherf et al.
# Submitted via: tcd 2.0b
#
DISCID=8d10920b
DTITLE=Various Artist - Romantic Moods
DYEAR=1900
DGENRE=
TTITLE0=Tchaikovsky: The Sleeping Beauty
TTITLE1=Johann Strauss: Waltz op. 114
TTITLE2=Bach: Ave Maria
TTITLE3=Brahms: Waltz in A major
TTITLE4=Johann Strauss (son): Emperor's Waltz
TTITLE5=Johann Pachelbel: Canon in D major
TTITLE6=Frederic Chopin: op. 9 No. 2 in E flat major
TTITLE7=Nicolai Rimsky-Korsakoff: Sheherazade
TTITLE8=Franz Liszt: Dream of Love
TTITLE9=Johann Strauss (son): The Blue Danube
TTITLE10=Ludwig van Beethoven: Pathetique
EXTD=
EXTT0=
EXTT1=
EXTT2=
EXTT3=
EXTT4=
EXTT5=
EXTT6=
EXTT7=
EXTT8=
EXTT9=
EXTT10=
PLAYORDER=
